<svg xmlns="http://www.w3.org/2000/svg" width="22" height="22" viewBox="0 0 22 22">
    <g fill="none" fill-rule="evenodd">
        <g stroke="#0E132D" stroke-width="1.5">
            <g>
                <g>
                    <path fill-rule="nonzero" d="M9.146.75c2.227 0 4.363.885 5.938 2.46C16.723 4.85 17.542 7 17.542 9.147c0 2.149-.82 4.297-2.46 5.936-1.639 1.64-3.788 2.459-5.936 2.459-2.149 0-4.297-.82-5.936-2.459C1.57 13.444.75 11.296.75 9.147.75 7 1.569 4.85 3.208 3.21 4.783 1.635 6.918.75 9.146.75z" transform="translate(-839 -56) translate(819 31) translate(20 25)"/>
                    <path stroke-linecap="round" stroke-linejoin="round" d="M20.8 20.8L15.606 15.613" transform="translate(-839 -56) translate(819 31) translate(20 25)"/>
                </g>
            </g>
        </g>
    </g>
</svg>
